<svg xmlns="http://www.w3.org/2000/svg" width="45.289" height="45.289" viewBox="0 0 45.289 45.289">
    <path data-name="Path 1" d="M48.849 22.21h-1.824v-.094h-20.38v9.058h12.8A13.6 13.6 0 1 1 35.658 16.5l6.405-6.405a22.621 22.621 0 1 0 7.226 16.551 22.8 22.8 0 0 0-.44-4.436z" transform="translate(-4 -4)" style="fill:#ffc107"/>
    <path data-name="Path 2" d="m6.306 16.1 7.44 5.456A13.559 13.559 0 0 1 35.353 16.5l6.405-6.405A22.6 22.6 0 0 0 6.306 16.1z" transform="translate(-3.695 -4)" style="fill:#ff3d00"/>
    <path data-name="Path 3" d="M26.354 46.109a22.539 22.539 0 0 0 15.182-5.879l-7.008-5.93a13.552 13.552 0 0 1-20.949-6.245L6.2 33.743a22.627 22.627 0 0 0 20.154 12.366z" transform="translate(-3.71 -.819)" style="fill:#4caf50"/>
    <path data-name="Path 4" d="M46.2 20.094h-1.82V20H24v9.058h12.8a13.632 13.632 0 0 1-4.627 6.308l7.008 5.931a21.905 21.905 0 0 0 7.463-16.765 22.8 22.8 0 0 0-.444-4.438z" transform="translate(-1.355 -1.884)" style="fill:#1976d2"/>
</svg>
