<svg xmlns="http://www.w3.org/2000/svg" width="89.048" height="44.524" viewBox="0 0 89.048 44.524">
    <defs>
        <filter id="rc0199wzwa">
            <feOffset dy="3"/>
            <feGaussianBlur stdDeviation="3" result="blur"/>
            <feFlood flood-opacity=".075" result="color"/>
            <feComposite operator="out" in="SourceGraphic" in2="blur"/>
            <feComposite operator="in" in="color"/>
            <feComposite operator="in" in2="SourceGraphic"/>
        </filter>
    </defs>
    <g data-type="innerShadowGroup">
        <path data-name="link_FILL0_wght400_GRAD0_opsz24" d="M120.072-635.476h-17.81a21.456 21.456 0 0 1-15.75-6.512A21.456 21.456 0 0 1 80-657.738a21.456 21.456 0 0 1 6.512-15.75 21.456 21.456 0 0 1 15.75-6.512h17.81v8.9h-17.81a12.881 12.881 0 0 0-9.461 3.9 12.881 12.881 0 0 0-3.9 9.461 12.881 12.881 0 0 0 3.9 9.461 12.881 12.881 0 0 0 9.461 3.9h17.81zm-13.357-17.81v-8.9h35.619v8.9zm22.262 17.81v-8.9h17.81a12.881 12.881 0 0 0 9.461-3.9 12.881 12.881 0 0 0 3.9-9.461 12.881 12.881 0 0 0-3.9-9.461 12.881 12.881 0 0 0-9.461-3.9h-17.81V-680h17.81a21.456 21.456 0 0 1 15.75 6.512 21.456 21.456 0 0 1 6.512 15.75 21.456 21.456 0 0 1-6.512 15.75 21.456 21.456 0 0 1-15.75 6.512z" transform="rotate(-180 84.524 -317.738)" style="mix-blend-mode:hard-light;isolation:isolate;fill:rgba(255,255,255,.19)"/>
        <g style="filter:url(#rc0199wzwa);mix-blend-mode:hard-light;isolation:isolate">
            <path data-name="link_FILL0_wght400_GRAD0_opsz24" d="M120.072-635.476h-17.81a21.456 21.456 0 0 1-15.75-6.512A21.456 21.456 0 0 1 80-657.738a21.456 21.456 0 0 1 6.512-15.75 21.456 21.456 0 0 1 15.75-6.512h17.81v8.9h-17.81a12.881 12.881 0 0 0-9.461 3.9 12.881 12.881 0 0 0-3.9 9.461 12.881 12.881 0 0 0 3.9 9.461 12.881 12.881 0 0 0 9.461 3.9h17.81zm-13.357-17.81v-8.9h35.619v8.9zm22.262 17.81v-8.9h17.81a12.881 12.881 0 0 0 9.461-3.9 12.881 12.881 0 0 0 3.9-9.461 12.881 12.881 0 0 0-3.9-9.461 12.881 12.881 0 0 0-9.461-3.9h-17.81V-680h17.81a21.456 21.456 0 0 1 15.75 6.512 21.456 21.456 0 0 1 6.512 15.75 21.456 21.456 0 0 1-6.512 15.75 21.456 21.456 0 0 1-15.75 6.512z" transform="rotate(-180 84.525 -317.74)" style="fill:#fff"/>
        </g>
    </g>
</svg>
